#define 5x4_ascii_width 8
#define 5x4_ascii_height 160
static unsigned char 5x4_ascii_bits[] = {
   0x20, 0x50, 0x70, 0x10, 0x20, 0x22, 0x52, 0x72, 0x50, 0x52, 0x35, 0x55,
   0x30, 0x50, 0x30, 0x66, 0x1f, 0x16, 0x1f, 0x66, 0x32, 0x57, 0x53, 0x56,
   0x37, 0x71, 0x14, 0x32, 0x11, 0x74, 0x70, 0x12, 0x37, 0x12, 0x10, 0x72,
   0x11, 0x50, 0x50, 0x60, 0x52, 0x51, 0x71, 0x51, 0x52, 0x71, 0x22, 0x22,
   0x22, 0x71, 0x60, 0x45, 0x42, 0x55, 0x20, 0x50, 0x52, 0x37, 0x52, 0x50,
   0x10, 0x10, 0x10, 0x12, 0x71, 0x50, 0x70, 0x57, 0x50, 0x50, 0x10, 0x30,
   0x50, 0x50, 0x52, 0x20, 0x54, 0x52, 0x51, 0x20, 0x32, 0x55, 0x35, 0x15,
   0x12, 0x22, 0x53, 0x52, 0x52, 0x62, 0x33, 0x54, 0x32, 0x51, 0x57, 0x63,
   0x14, 0x26, 0x44, 0x33, 0x75, 0x25, 0x27, 0x24, 0x24, 0x57, 0x51, 0x53,
   0x54, 0x73, 0x56, 0x51, 0x53, 0x25, 0x22, 0x57, 0x54, 0x52, 0x72, 0x52,
   0x52, 0x55, 0x27, 0x55, 0x52, 0x56, 0x75, 0x26, 0x24, 0x24, 0x70, 0x42,
   0x20, 0x12, 0x70, 0x70, 0x12, 0x10, 0x12, 0x71, 0x04, 0x12, 0x21, 0x42,
   0x04, 0x70, 0x47, 0x40, 0x47, 0x70, 0x21, 0x52, 0x04, 0x02, 0x01, 0x03,
   0x04, 0x02, 0x00, 0x72 };
